<svg width="16" height="16" viewBox="0 0 16 16" fill="none" xmlns="http://www.w3.org/2000/svg">
<path fill-rule="evenodd" clip-rule="evenodd" d="M14.502 0.642018C13.6459 -0.214005 12.2581 -0.214007 11.402 0.642018L1.05759 10.9865C0.75159 11.2925 0.543008 11.6822 0.458141 12.1065L0.0291904 14.2513C-0.175314 15.2738 0.726207 16.1753 1.74873 15.9708L3.89347 15.5418C4.31782 15.457 4.70756 15.2484 5.01356 14.9424L15.358 4.59798C16.214 3.74195 16.214 2.35407 15.358 1.49804L14.502 0.642018ZM12.4353 1.67533C12.7207 1.38999 13.1833 1.38999 13.4687 1.67533L14.3247 2.53136C14.6101 2.81669 14.6101 3.27932 14.3247 3.56467L12.3726 5.5167L10.4833 3.62736L12.4353 1.67533ZM9.44997 4.66067L2.0909 12.0198C1.9889 12.1218 1.91938 12.2517 1.89109 12.3931L1.46214 14.5378L3.60688 14.1089C3.74833 14.0806 3.87825 14.0111 3.98025 13.9091L11.3393 6.55L9.44997 4.66067Z" fill="#8C8C8C"/>
</svg>
