<svg width="13" height="13" viewBox="0 0 13 13" fill="none" xmlns="http://www.w3.org/2000/svg">
<path d="M8.97588 9.95951C7.85783 10.8274 6.45108 11.2366 5.04199 11.1037C3.6329 10.9709 2.32738 10.3061 1.39118 9.24454C0.454982 8.18301 -0.0415261 6.80458 0.00272251 5.38984C0.0469711 3.97511 0.628651 2.63041 1.62936 1.62946C2.63024 0.628691 3.97485 0.0469741 5.3895 0.00272268C6.80414 -0.0415287 8.18248 0.455011 9.24395 1.39127C10.3054 2.32753 10.9702 3.63313 11.103 5.04231C11.2359 6.45149 10.8267 7.85833 9.95888 8.97645L12.778 11.7958C12.8696 11.8808 12.9365 11.989 12.9718 12.1088C13.007 12.2287 13.0093 12.3558 12.9784 12.4769C12.9474 12.5979 12.8844 12.7084 12.7959 12.7966C12.7075 12.8849 12.5968 12.9476 12.4757 12.9782C12.3548 13.0092 12.2278 13.0071 12.108 12.972C11.9882 12.9369 11.8801 12.8702 11.795 12.7789L8.97588 9.95951ZM9.73631 5.56356C9.74456 5.01045 9.64275 4.46123 9.4368 3.94783C9.23085 3.43444 8.92488 2.96712 8.53668 2.57307C8.14849 2.17901 7.68581 1.86609 7.17558 1.6525C6.66534 1.43891 6.11773 1.32891 5.5646 1.32891C5.01146 1.32891 4.46385 1.43891 3.95362 1.6525C3.44338 1.86609 2.98071 2.17901 2.59251 2.57307C2.20431 2.96712 1.89834 3.43444 1.69239 3.94783C1.48645 4.46123 1.38463 5.01045 1.39288 5.56356C1.40922 6.65926 1.85592 7.70456 2.63649 8.47363C3.41707 9.2427 4.46884 9.6738 5.5646 9.6738C6.66035 9.6738 7.71213 9.2427 8.4927 8.47363C9.27327 7.70456 9.71998 6.65926 9.73631 5.56356Z" fill="#8C8C8C"/>
</svg>
