<svg width="19" height="21" viewBox="0 0 19 21" fill="none" xmlns="http://www.w3.org/2000/svg">
<path d="M11.9058 0C12.8145 0 13.6213 0.578403 13.9086 1.43592L14.4831 3.15H17.9444C18.5274 3.15 19 3.62011 19 4.2C19 4.77988 18.5274 5.24998 17.9444 5.25L17.9418 5.32481L17.0262 18.0744C16.9079 19.7229 15.529 21 13.8677 21H5.13236C3.471 21 2.09211 19.7229 1.97374 18.0744L1.05824 5.32481C1.05643 5.29972 1.05553 5.27477 1.05551 5.25C0.472562 5.24998 0 4.77988 0 4.2C0 3.62011 0.472593 3.15 1.05556 3.15H4.51698L5.09136 1.43592C5.37871 0.578403 6.18545 0 7.09414 0H11.9058ZM15.8307 5.25H3.16936L4.07949 17.9248C4.11895 18.4743 4.57858 18.9 5.13236 18.9H13.8677C14.4214 18.9 14.881 18.4743 14.9205 17.9248L15.8307 5.25ZM7.38889 8.4C7.93023 8.4 8.37637 8.80533 8.43734 9.32754L8.44444 9.45V14.7C8.44444 15.2799 7.97187 15.75 7.38889 15.75C6.84756 15.75 6.40141 15.3447 6.34043 14.8225L6.33333 14.7V9.45C6.33333 8.87008 6.80592 8.4 7.38889 8.4ZM11.6111 8.4C12.1941 8.4 12.6667 8.87008 12.6667 9.45V14.7C12.6667 15.2799 12.1941 15.75 11.6111 15.75C11.0281 15.75 10.5556 15.2799 10.5556 14.7V9.45C10.5556 8.87008 11.0281 8.4 11.6111 8.4ZM11.9058 2.1H7.09414L6.74229 3.15H12.2577L11.9058 2.1Z" fill="#8C8C8C"/>
</svg>
