<svg width="34" height="34" viewBox="0 0 34 34" fill="none" xmlns="http://www.w3.org/2000/svg">
<path d="M29.7236 16.9849V26.8927C29.7236 27.6435 29.4253 28.3635 28.8944 28.8944C28.3635 29.4253 27.6435 29.7236 26.8927 29.7236H22.6465M29.7236 16.9849C20.6055 16.9849 15.4209 19.7945 12.6608 22.9905M29.7236 16.9849V14.8618M22.6465 29.7236H7.07703C6.32625 29.7236 5.60622 29.4253 5.07534 28.8944C4.54446 28.3635 4.24622 27.6435 4.24622 26.8927V22.6465M22.6465 29.7236C20.2347 25.8057 16.3805 23.8524 12.6608 22.9905M12.6608 22.9905C9.39405 22.2318 6.23203 22.3153 4.24622 22.6465M4.24622 22.6465V7.07703C4.24622 6.32625 4.54446 5.60623 5.07534 5.07534C5.60622 4.54446 6.32625 4.24622 7.07703 4.24622H18.4003M26.8927 2.83081V7.07703M26.8927 7.07703V11.3233M26.8927 7.07703H31.139M26.8927 7.07703H22.6465M12.031 9.90785C11.3233 9.90785 9.90785 10.3325 9.90785 12.031C9.90785 13.7294 11.3233 14.1541 12.031 14.1541C12.7387 14.1541 14.1541 13.7294 14.1541 12.031C14.1541 10.3325 12.7387 9.90785 12.031 9.90785Z" stroke="#8C8C8C" stroke-width="2" stroke-linecap="round" stroke-linejoin="round"/>
</svg>
