<svg width="6" height="4" viewBox="0 0 6 4" fill="none" xmlns="http://www.w3.org/2000/svg">
<path d="M2.61074 0.182318L0.129028 3.11295C-0.163852 3.45889 0.0741776 4 0.518672 4H5.4821C5.58158 4.00009 5.67897 3.97055 5.76262 3.91491C5.84627 3.85927 5.91262 3.7799 5.95373 3.6863C5.99485 3.5927 6.00898 3.48884 5.99444 3.38715C5.9799 3.28546 5.9373 3.19026 5.87174 3.11295L3.39003 0.182853C3.34146 0.125422 3.28156 0.0793927 3.21436 0.0478547C3.14715 0.0163167 3.0742 0 3.00039 0C2.92658 0 2.85362 0.0163167 2.78641 0.0478547C2.71921 0.0793927 2.65931 0.124887 2.61074 0.182318Z" fill="white"/>
</svg>
