<svg width="19" height="19" viewBox="0 0 19 19" fill="none" xmlns="http://www.w3.org/2000/svg">
<path fill-rule="evenodd" clip-rule="evenodd" d="M14.83 0C15.2881 0 15.7274 0.181977 16.0514 0.50591L18.4941 2.94864C18.818 3.27257 19 3.7119 19 4.17001V16.4091C19 17.8401 17.8401 19 16.4091 19H2.59091C1.15999 19 0 17.8401 0 16.4091V2.59091C0 1.15999 1.15999 0 2.59091 0H14.83ZM2.59091 1.72727C2.11394 1.72727 1.72727 2.11394 1.72727 2.59091V16.4091C1.72727 16.8861 2.11394 17.2727 2.59091 17.2727H3.45455V12.0909C3.45455 10.66 4.61454 9.5 6.04545 9.5H12.9545C14.3855 9.5 15.5455 10.66 15.5455 12.0909V17.2727H16.4091C16.8861 17.2727 17.2727 16.8861 17.2727 16.4091V5.03364C17.2727 4.57554 17.0908 4.1362 16.7668 3.81227L15.1877 2.23318C14.8638 1.90925 14.4245 1.72727 13.9664 1.72727H13.8182V3.45455C13.8182 4.88546 12.6582 6.04545 11.2273 6.04545H7.77273C6.34181 6.04545 5.18182 4.88546 5.18182 3.45455V1.72727H2.59091ZM13.8182 17.2727V12.0909C13.8182 11.6139 13.4315 11.2273 12.9545 11.2273H6.04545C5.56849 11.2273 5.18182 11.6139 5.18182 12.0909V17.2727H13.8182ZM6.90909 1.72727H12.0909V3.45455C12.0909 3.93151 11.7043 4.31818 11.2273 4.31818H7.77273C7.29576 4.31818 6.90909 3.93151 6.90909 3.45455V1.72727Z" fill="#8C8C8C"/>
</svg>
