<svg width="20" height="17" viewBox="0 0 20 17" fill="none" xmlns="http://www.w3.org/2000/svg">
<path d="M0 0.648556C0 1.00307 0.294637 1.30571 0.641259 1.30571H3.57018L4.95667 10.8001C5.13865 12.028 5.78856 12.7976 7.04509 12.7976H17.1578C17.4957 12.7976 17.7903 12.5209 17.7903 12.1491C17.7903 11.7772 17.4957 11.5005 17.1578 11.5005H7.19239C6.69846 11.5005 6.39517 11.1546 6.31716 10.6271L6.17851 9.71923H17.175C18.4402 9.71923 19.0901 8.94099 19.2722 7.7045L19.9654 3.13022C19.9828 3.01784 20 2.87945 20 2.80164C20 2.38659 19.688 2.10125 19.2115 2.10125H5.06932L4.89603 1.00307C4.80937 0.337246 4.56675 0 3.68284 0H0.641259C0.294637 0 0 0.302677 0 0.648556ZM6.31716 15.5992C6.31716 16.386 6.94108 17 7.72964 17C8.50955 17 9.13347 16.386 9.13347 15.5992C9.13347 14.8209 8.50955 14.1984 7.72964 14.1984C6.94108 14.1984 6.31716 14.8209 6.31716 15.5992ZM14.4195 15.5992C14.4195 16.386 15.052 17 15.8319 17C16.6205 17 17.2444 16.386 17.2444 15.5992C17.2444 14.8209 16.6205 14.1984 15.8319 14.1984C15.052 14.1984 14.4195 14.8209 14.4195 15.5992Z" fill="#8C8C8C"/>
</svg>
